<svg width="100" height="100" viewBox="0 0 100 100" fill="none" xmlns="http://www.w3.org/2000/svg">
<path d="M50 0C36.7392 0 24.0215 5.26784 14.6447 14.6447C5.26784 24.0215 0 36.7392 0 50C0 63.2608 5.26784 75.9785 14.6447 85.3553C24.0215 94.7322 36.7392 100 50 100C63.2608 100 75.9785 94.7322 85.3553 85.3553C94.7322 75.9785 100 63.2608 100 50C100 36.7392 94.7322 24.0215 85.3553 14.6447C75.9785 5.26784 63.2608 0 50 0V0ZM71.875 46.875C72.7038 46.875 73.4987 47.2042 74.0847 47.7903C74.6708 48.3763 75 49.1712 75 50C75 50.8288 74.6708 51.6237 74.0847 52.2097C73.4987 52.7958 72.7038 53.125 71.875 53.125H35.6687L49.0875 66.5375C49.3781 66.828 49.6085 67.173 49.7658 67.5526C49.923 67.9322 50.0039 68.3391 50.0039 68.75C50.0039 69.1609 49.923 69.5678 49.7658 69.9474C49.6085 70.327 49.3781 70.672 49.0875 70.9625C48.797 71.2531 48.452 71.4835 48.0724 71.6408C47.6928 71.798 47.2859 71.8789 46.875 71.8789C46.4641 71.8789 46.0572 71.798 45.6776 71.6408C45.298 71.4835 44.953 71.2531 44.6625 70.9625L25.9125 52.2125C25.6215 51.9222 25.3906 51.5774 25.233 51.1977C25.0755 50.8181 24.9944 50.411 24.9944 50C24.9944 49.589 25.0755 49.1819 25.233 48.8023C25.3906 48.4226 25.6215 48.0778 25.9125 47.7875L44.6625 29.0375C45.2493 28.4507 46.0452 28.1211 46.875 28.1211C47.7048 28.1211 48.5007 28.4507 49.0875 29.0375C49.6743 29.6243 50.0039 30.4202 50.0039 31.25C50.0039 32.0798 49.6743 32.8757 49.0875 33.4625L35.6687 46.875H71.875Z" fill="#696972"/>
</svg>
